<?xml version="1.0" standalone="no"?>
<!DOCTYPE svg PUBLIC "-//W3C//DTD SVG 20010904//EN"
 "http://www.w3.org/TR/2001/REC-SVG-20010904/DTD/svg10.dtd">
<svg version="1.0" xmlns="http://www.w3.org/2000/svg"
 width="286.000000pt" height="286.000000pt" viewBox="0 0 286.000000 286.000000"
 preserveAspectRatio="xMidYMid meet">
<metadata>
Created by potrace 1.11, written by Peter Selinger 2001-2013
</metadata>
<g transform="translate(0.000000,286.000000) scale(0.100000,-0.100000)"
fill="#000000" stroke="none">
<path d="M1510 2648 c-19 -5 -48 -10 -65 -11 -45 -4 -102 -26 -151 -59 -29
-19 -51 -27 -64 -23 -13 4 -23 0 -32 -14 -7 -12 -20 -21 -29 -21 -8 0 -42 -20
-73 -45 -32 -25 -62 -45 -67 -45 -4 0 -10 -8 -13 -18 -4 -11 -17 -24 -30 -31
-30 -16 -66 -80 -66 -117 0 -16 -7 -51 -16 -79 -8 -27 -19 -70 -24 -95 -5 -25
-12 -56 -15 -70 -7 -34 -26 -153 -26 -165 0 -25 10 -174 13 -186 3 -14 -3 -14
-54 1 -21 7 -32 3 -52 -15 -38 -35 -39 -105 -2 -193 13 -31 29 -82 36 -112 19
-83 51 -133 96 -150 26 -10 34 -46 34 -149 l0 -77 -47 -46 c-72 -70 -191 -147
-253 -164 -30 -8 -76 -23 -103 -32 l-47 -16 0 -358 0 -358 975 1 975 0 0 148
0 147 -37 21 c-21 12 -71 46 -110 77 -40 30 -105 73 -145 96 -74 42 -108 83
-189 226 l-23 42 51 56 c28 31 63 80 77 109 23 46 74 220 111 377 8 30 25 86
39 123 29 77 32 100 12 116 -11 9 -10 27 5 108 11 54 26 112 34 130 28 59 41
141 26 165 -18 30 -22 56 -12 100 7 29 5 55 -8 101 -10 34 -16 67 -14 74 6 17
-16 93 -27 93 -6 0 -10 6 -10 13 0 25 -31 77 -57 95 -14 9 -36 27 -49 39 -14
13 -27 23 -29 23 -12 0 -45 26 -45 35 0 11 -121 68 -136 64 -17 -4 -89 14
-112 29 -12 8 -31 12 -42 9 -10 -3 -21 0 -22 5 -2 6 -33 13 -68 17 -36 4 -69
9 -75 12 -5 3 -26 2 -45 -3z"/>
</g>
</svg>
